<?xml version="1.0" standalone="no"?>
<!DOCTYPE svg PUBLIC "-//W3C//DTD SVG 20010904//EN"
 "http://www.w3.org/TR/2001/REC-SVG-20010904/DTD/svg10.dtd">
<svg version="1.0" xmlns="http://www.w3.org/2000/svg"
 width="200.000000pt" height="200.000000pt" viewBox="0 0 200.000000 200.000000"
 preserveAspectRatio="xMidYMid meet">

<g transform="translate(0.000000,200.000000) scale(0.100000,-0.100000)"
fill="#FFFFFF" stroke="none">
<path d="M255 1700 c-19 -21 -17 -22 109 -149 l127 -127 -62 -12 c-44 -8 -71
-20 -92 -39 -58 -55 -57 -51 -57 -446 0 -362 0 -364 23 -398 12 -18 38 -44 56
-56 l34 -23 536 0 536 0 127 -127 128 -128 22 23 23 22 -740 740 c-407 407
-743 740 -746 740 -3 0 -14 -9 -24 -20z m402 -442 l102 -103 -30 -61 c-58
-117 -35 -257 56 -349 92 -91 232 -114 349 -56 l61 30 105 -104 105 -105 -503
0 -504 0 -29 29 -29 29 0 360 c0 348 1 360 21 386 24 31 64 44 139 45 l55 1
102 -102z m474 -505 c-53 -37 -160 -46 -223 -20 -127 53 -187 210 -128 333
l23 46 173 -173 c159 -158 171 -174 155 -186z"/>
<path d="M724 1495 c-46 -54 -46 -56 -29 -76 19 -19 19 -19 65 26 l46 45 196
0 196 0 60 -65 59 -65 114 0 c133 0 180 -11 209 -47 19 -25 20 -38 20 -385 l0
-360 -29 -28 -28 -29 21 -20 22 -21 26 28 c48 51 48 51 48 432 0 395 0 393
-60 443 -43 37 -89 47 -212 47 l-106 0 -57 65 -57 65 -228 0 -228 0 -48 -55z"/>
<path d="M948 1259 c-66 -10 -74 -17 -48 -44 18 -19 27 -21 61 -15 160 29 306
-119 279 -282 -6 -31 -3 -41 16 -59 l23 -22 11 29 c6 16 11 60 11 97 0 188
-164 325 -353 296z"/>
</g>
</svg>
