<svg width="18" height="16" viewBox="0 0 18 16" fill="none" xmlns="http://www.w3.org/2000/svg">
    <path d="M16.9181 6.73656C16.8445 6.72461 16.7699 6.7191 16.6953 6.72006H3.9967L4.27359 6.59127C4.54425 6.46317 4.79048 6.28882 5.00125 6.07612L8.56227 2.5151C9.03126 2.06739 9.11007 1.34718 8.74901 0.808642C8.3288 0.234766 7.52294 0.110162 6.94902 0.530377C6.90266 0.564345 6.85859 0.601372 6.81718 0.641216L0.377724 7.08067C-0.125519 7.58335 -0.125962 8.39879 0.376718 8.90203L0.377724 8.90304L6.81718 15.3425C7.32082 15.8447 8.13626 15.8436 8.63854 15.34C8.67806 15.3003 8.71496 15.2581 8.74901 15.2137C9.11007 14.6752 9.03126 13.955 8.56227 13.5073L5.00769 9.93979C4.81873 9.75063 4.60148 9.59202 4.36375 9.46971L3.97738 9.29585H16.6245C17.2824 9.32028 17.8596 8.8607 17.9832 8.21402C18.097 7.51191 17.6202 6.85046 16.9181 6.73656V6.73656Z" fill="#8e94aa"/>
</svg>
