<svg xmlns="http://www.w3.org/2000/svg" width="16" height="16" fill="none" viewBox="0 0 166 166">
    <g clip-path="url(#clip0)">
        <path fill="#8e94aa" fill-rule="evenodd" d="M124.188 106.192c-18.881 18.882-49.495 18.882-68.376 0-18.882-18.881-18.882-49.495 0-68.376 18.881-18.882 49.495-18.882 68.376 0 18.882 18.881 18.882 49.495 0 68.376zm-73.242 16.965c25.229 19.312 61.477 17.428 84.556-5.651 25.13-25.13 25.13-65.874 0-91.004-25.13-25.13-65.874-25.13-91.004 0-23.079 23.079-24.963 59.327-5.65 84.556-2.233.309-4.387 1.322-6.104 3.038l-23.1 23.1c-4.187 4.187-4.187 10.976 0 15.164 4.188 4.187 10.976 4.187 15.164 0l23.1-23.1c1.716-1.717 2.729-3.87 3.038-6.103z" clip-rule="evenodd"/>
    </g>
    <defs>
        <clipPath id="clip0">
            <path fill="#fff" d="M0 0H166V166H0z"/>
        </clipPath>
    </defs>
</svg>
