<svg xmlns="http://www.w3.org/2000/svg" width="36" height="36" fill="none" viewBox="0 0 36 36">
    <g stroke="#8e94aa" stroke-width="3" clip-path="url(#clip0)">
        <path d="M17.914 18.32l16.027-6.93c.795-.343.807-1.465.021-1.826L17.936 2.2c-.276-.126-.594-.121-.865.014L2.343 9.578c-.747.374-.734 1.444.022 1.8l14.727 6.93c.26.122.559.127.822.013z"/>
        <path d="M26.75 14.25l7.212 3.314c.786.36.774 1.483-.02 1.826l-16.028 6.93c-.263.115-.563.11-.822-.012l-14.727-6.93c-.756-.356-.769-1.426-.022-1.8L9 14.25"/>
        <path d="M26.75 22l7.212 3.314c.786.36.774 1.483-.02 1.826l-16.028 6.93c-.263.115-.563.11-.822-.012l-14.727-6.93c-.756-.356-.769-1.426-.022-1.8L9 22"/>
    </g>
    <defs>
        <clipPath id="clip0">
            <path fill="#fff" d="M0 0H36V36H0z"/>
        </clipPath>
    </defs>
</svg>
