<svg xmlns="http://www.w3.org/2000/svg" width="16" height="13" fill="none" viewBox="0 0 494 410">
    <path fill="#fff" d="M293.845 205c0-25.985-21.065-47.05-47.05-47.05-25.985 0-47.05 21.065-47.05 47.05 0 25.985 21.065 47.05 47.05 47.05 25.985 0 47.05-21.065 47.05-47.05z"/>
    <path fill="#fff" d="M95.809 205c0 57.634 34.209 109.614 87.155 132.423 13.018 5.607 28.114-.399 33.722-13.415 5.608-13.018-.396-28.115-13.414-33.722-34.1-14.692-56.136-48.169-56.136-85.286 0-37.117 22.036-70.594 56.136-85.286 9.707-4.182 15.517-13.641 15.517-23.58 0-3.39-.674-6.835-2.103-10.143-5.606-13.019-20.704-19.022-33.722-13.416C130.018 95.386 95.809 147.366 95.809 205z"/>
    <path fill="#fff" fill-opacity=".5" d="M108.568 4.203C40.586 48.765 0 123.83 0 205s40.586 156.235 108.568 200.797c11.854 7.771 27.761 4.459 35.532-7.394 2.844-4.338 4.203-9.219 4.203-14.045 0-8.362-4.081-16.561-11.598-21.487-53.461-35.044-85.38-94.06-85.38-157.871 0-63.811 31.918-122.827 85.379-157.87 11.853-7.77 15.166-23.679 7.395-35.534-7.77-11.852-23.677-15.163-35.531-7.393z"/>
    <path fill="#fff" d="M200 205.001c0 25.985 21.065 47.05 47.05 47.05 25.985 0 47.05-21.065 47.05-47.05 0-25.985-21.065-47.05-47.05-47.05-25.985 0-47.05 21.065-47.05 47.05z"/>
    <path fill="#fff" d="M398.036 205.001c0-57.634-34.209-109.614-87.155-132.423-13.018-5.607-28.114.399-33.722 13.415-5.608 13.018.396 28.115 13.414 33.722 34.1 14.692 56.136 48.169 56.136 85.286 0 37.117-22.036 70.594-56.136 85.286-9.707 4.182-15.517 13.641-15.517 23.581 0 3.389.674 6.834 2.103 10.142 5.606 13.019 20.704 19.022 33.722 13.416 52.946-22.811 87.155-74.791 87.155-132.425z"/>
    <path fill="#fff" fill-opacity=".5" d="M385.277 405.798c67.982-44.562 108.568-119.627 108.568-200.797S453.259 48.766 385.277 4.204c-11.854-7.771-27.761-4.46-35.532 7.394-2.844 4.338-4.203 9.219-4.203 14.045 0 8.362 4.081 16.56 11.598 21.487 53.461 35.044 85.38 94.06 85.38 157.871 0 63.811-31.918 122.827-85.379 157.871-11.853 7.77-15.166 23.678-7.395 35.533 7.77 11.852 23.677 15.163 35.531 7.393z"/>
</svg>
