<?xml version="1.0" standalone="no"?>
<!DOCTYPE svg PUBLIC "-//W3C//DTD SVG 20010904//EN"
 "http://www.w3.org/TR/2001/REC-SVG-20010904/DTD/svg10.dtd">
<svg version="1.0" xmlns="http://www.w3.org/2000/svg"
 width="300.000000pt" height="168.000000pt" viewBox="0 0 300.000000 168.000000"
 preserveAspectRatio="xMidYMid meet">

<g transform="translate(0.000000,168.000000) scale(0.100000,-0.100000)"
fill="#FFFFFF" stroke="none">
<path d="M1306 1392 c-14 -17 -16 -47 -14 -267 l3 -248 33 27 32 28 0 204 0
204 490 0 490 0 0 -295 0 -295 -304 0 -304 0 -21 -35 -20 -35 339 0 c327 0
341 1 360 20 19 19 20 33 20 348 0 306 -1 330 -18 345 -17 15 -69 17 -544 17
-498 0 -526 -1 -542 -18z"/>
<path d="M1087 1163 c-108 -75 -109 -76 -272 -293 -161 -215 -165 -219 -220
-239 -31 -12 -60 -21 -65 -21 -6 0 -10 -90 -10 -231 l0 -231 223 4 c280 4 267
-1 442 178 72 73 198 190 282 261 83 71 161 141 172 155 57 73 -8 194 -103
194 -38 0 -54 -11 -204 -130 l-162 -130 0 113 c0 101 2 116 20 132 18 17 20
31 20 167 0 81 -3 148 -7 147 -5 0 -57 -34 -116 -76z"/>
<path d="M2014 1210 c-12 -4 -31 -21 -44 -37 -17 -22 -21 -36 -17 -68 12 -83
108 -116 168 -56 76 77 -7 202 -107 161z"/>
<path d="M1490 1180 l0 -30 165 0 165 0 0 30 0 30 -165 0 -165 0 0 -30z"/>
<path d="M1497 1073 c-4 -3 -7 -17 -7 -30 l0 -23 165 0 165 0 0 30 0 30 -158
0 c-87 0 -162 -3 -165 -7z"/>
<path d="M1965 971 c-47 -21 -61 -36 -70 -74 l-7 -27 161 0 c152 0 161 1 161
19 0 11 -12 33 -26 50 -43 51 -144 66 -219 32z"/>
<path d="M1455 481 c-55 -49 -136 -125 -179 -170 -79 -79 -80 -81 -61 -101 13
-15 30 -20 64 -20 56 0 66 6 75 45 22 95 28 107 39 96 13 -13 86 -15 105 -3
13 9 74 242 63 242 -3 0 -51 -40 -106 -89z"/>
</g>
</svg>
