<?xml version="1.0" standalone="no"?>
<!DOCTYPE svg PUBLIC "-//W3C//DTD SVG 20010904//EN"
 "http://www.w3.org/TR/2001/REC-SVG-20010904/DTD/svg10.dtd">
<svg version="1.0" xmlns="http://www.w3.org/2000/svg"
 width="200.000000pt" height="200.000000pt" viewBox="0 0 200.000000 200.000000"
 preserveAspectRatio="xMidYMid meet">

<g transform="translate(0.000000,200.000000) scale(0.100000,-0.100000)"
fill="#FFFFFF" stroke="none">
<path d="M920 1664 c-139 -90 -284 -146 -415 -163 -124 -15 -117 5 -113 -361
4 -279 6 -310 25 -361 42 -112 111 -202 227 -295 94 -75 302 -184 352 -184 17
0 72 18 120 41 242 111 417 287 471 473 12 38 17 125 20 342 5 284 5 292 -15
312 -12 12 -40 23 -69 27 -159 20 -281 64 -419 151 -47 30 -96 54 -108 54 -11
0 -46 -16 -76 -36z m218 -130 c85 -49 240 -102 327 -112 l60 -7 3 -215 c1
-118 -2 -250 -7 -294 -24 -200 -182 -378 -436 -491 l-85 -38 -64 27 c-189 80
-358 222 -424 355 l-37 75 -3 293 -4 293 29 0 c96 1 274 63 408 143 l90 54 35
-21 c19 -11 68 -40 108 -62z"/>
<path d="M980 1347 c0 -42 -1 -44 -40 -56 -83 -25 -127 -91 -117 -177 7 -65
41 -101 143 -153 76 -40 90 -51 98 -79 12 -42 -5 -79 -39 -88 -42 -10 -73 10
-85 56 l-11 40 -64 0 c-63 0 -65 -1 -65 -25 0 -66 57 -134 130 -156 38 -11 40
-14 40 -51 0 -37 1 -38 35 -38 34 0 35 1 35 40 0 31 4 40 18 40 36 1 99 39
120 72 26 42 30 124 7 168 -19 36 -66 73 -131 101 -72 31 -94 55 -94 101 0 29
6 41 24 53 34 23 62 6 76 -45 l11 -40 64 0 c62 0 65 1 65 24 0 61 -56 137
-117 157 -31 10 -33 14 -33 55 0 44 0 44 -35 44 -35 0 -35 0 -35 -43z"/>
</g>
</svg>
