<?xml version="1.0" standalone="no"?>
<!DOCTYPE svg PUBLIC "-//W3C//DTD SVG 20010904//EN"
 "http://www.w3.org/TR/2001/REC-SVG-20010904/DTD/svg10.dtd">
<svg version="1.0" xmlns="http://www.w3.org/2000/svg"
 width="219.000000pt" height="230.000000pt" viewBox="0 0 219.000000 230.000000"
 preserveAspectRatio="xMidYMid meet">

<g transform="translate(0.000000,230.000000) scale(0.100000,-0.100000)"
fill="#FFFFFF" stroke="none">
<path d="M720 2175 c-289 -48 -516 -169 -587 -313 -25 -50 -28 -68 -28 -152 0
-81 4 -103 25 -145 30 -62 108 -142 177 -181 48 -26 53 -32 53 -64 0 -32 -5
-38 -55 -68 -73 -44 -147 -119 -176 -179 -20 -40 -24 -63 -24 -143 0 -110 18
-161 83 -232 31 -33 38 -47 31 -63 -13 -33 -10 -159 5 -209 49 -163 269 -294
591 -351 120 -22 388 -22 515 -1 217 35 402 113 503 210 81 77 100 121 105
238 4 87 2 102 -21 151 -13 30 -40 72 -60 93 -32 36 -34 42 -29 89 5 49 6 51
81 100 134 89 188 189 179 331 -6 96 -41 168 -115 233 -30 27 -75 60 -99 73
l-44 23 0 95 c0 78 -4 104 -24 145 -63 136 -253 249 -513 306 -128 27 -445 35
-573 14z m545 -120 c180 -40 313 -101 392 -180 29 -30 53 -62 53 -73 0 -34
-104 -120 -196 -163 -169 -80 -378 -116 -613 -106 -280 12 -513 89 -634 209
-47 47 -47 48 -33 77 56 107 259 207 501 247 107 18 433 11 530 -11z m638
-622 c21 -20 45 -50 53 -65 14 -28 14 -29 -34 -77 -31 -31 -81 -65 -143 -95
-251 -124 -624 -150 -944 -66 -92 24 -251 99 -284 134 l-22 24 75 -18 c416
-100 924 -10 1131 198 l49 51 40 -24 c22 -13 58 -41 79 -62z m-1434 -426 c138
-127 382 -209 671 -224 168 -9 116 -22 -120 -30 -138 -4 -198 -2 -284 12 -206
32 -369 99 -464 191 -53 51 -54 52 -39 80 16 30 65 80 106 107 23 15 24 15 48
-33 13 -27 50 -73 82 -103z m1327 -343 c26 -34 27 -37 12 -62 -9 -15 -42 -48
-75 -73 -221 -170 -688 -222 -1063 -119 -89 25 -203 79 -251 120 l-34 29 63
-25 c35 -14 114 -37 175 -52 104 -24 129 -26 337 -27 177 0 244 4 312 18 179
36 325 98 428 181 30 25 58 45 62 45 4 1 19 -15 34 -35z"/>
<path d="M590 1965 c-10 -12 -6 -18 22 -35 18 -11 37 -20 42 -20 5 0 -3 -9
-18 -21 -83 -65 44 -151 203 -135 36 3 100 15 141 26 81 21 140 26 140 10 0
-18 -59 -40 -110 -40 -84 0 -159 -42 -124 -71 20 -16 151 -17 219 0 46 11 56
10 99 -8 106 -46 201 -9 104 40 -24 12 -44 23 -46 24 -2 2 8 14 22 28 14 15
26 33 26 42 0 46 -105 95 -206 95 -29 0 -105 -13 -168 -30 -108 -28 -146 -30
-146 -9 0 15 38 29 99 35 40 5 67 14 82 27 21 19 21 21 3 34 -21 15 -110 17
-172 3 -33 -8 -49 -7 -72 5 -38 20 -124 20 -140 0z"/>
</g>
</svg>
