<?xml version="1.0" standalone="no"?>
<!DOCTYPE svg PUBLIC "-//W3C//DTD SVG 20010904//EN"
 "http://www.w3.org/TR/2001/REC-SVG-20010904/DTD/svg10.dtd">
<svg version="1.0" xmlns="http://www.w3.org/2000/svg"
 width="225.000000pt" height="225.000000pt" viewBox="0 0 225.000000 225.000000"
 preserveAspectRatio="xMidYMid meet">

<g transform="translate(0.000000,225.000000) scale(0.100000,-0.100000)"
fill="#FFFFFF" stroke="none">
<path d="M370 1967 c-201 -150 -366 -279 -368 -288 -2 -13 380 -324 685 -557
76 -58 78 -56 81 171 l2 198 488 -3 c432 -4 494 -6 552 -22 89 -25 198 -76
270 -127 56 -39 62 -41 77 -26 14 14 14 21 -1 81 -48 193 -163 342 -316 409
-107 47 -131 49 -607 54 l-453 5 0 173 c0 95 -3 180 -6 189 -3 9 -14 16 -23
16 -10 0 -181 -123 -381 -273z"/>
<path d="M96 937 c-15 -11 -16 -19 -7 -59 55 -246 219 -424 429 -467 34 -7
215 -11 502 -11 l450 0 0 25 c0 42 -31 104 -64 128 -31 22 -37 22 -446 28
-454 6 -456 6 -585 72 -79 39 -170 133 -218 225 -21 39 -39 72 -41 72 -1 0
-10 -6 -20 -13z"/>
<path d="M1832 434 c-172 -129 -322 -234 -333 -234 -19 0 -20 -6 -17 -92 3
-86 5 -93 23 -92 21 0 730 527 738 548 7 17 0 25 -53 68 l-45 36 -313 -234z"/>
</g>
</svg>
