<?xml version="1.0" standalone="no"?>
<!DOCTYPE svg PUBLIC "-//W3C//DTD SVG 20010904//EN"
 "http://www.w3.org/TR/2001/REC-SVG-20010904/DTD/svg10.dtd">
<svg version="1.0" xmlns="http://www.w3.org/2000/svg"
 width="425.000000pt" height="311.000000pt" viewBox="0 0 425.000000 311.000000"
 preserveAspectRatio="xMidYMid meet">

<g transform="translate(0.000000,311.000000) scale(0.100000,-0.100000)"
fill="#FFFFFF" stroke="none">
<path d="M1719 2946 c-63 -17 -132 -59 -168 -103 -17 -20 -52 -85 -77 -143
-335 -757 -324 -731 -324 -810 l0 -59 -329 -3 -329 -3 -44 -30 c-50 -36 -84
-83 -98 -136 -7 -25 -10 -248 -8 -632 l3 -594 30 -49 c19 -30 49 -60 79 -79
l49 -30 1032 0 1032 0 49 30 c30 19 60 49 79 79 l30 49 3 596 c2 431 0 608 -9
638 -15 54 -72 121 -123 144 -37 17 -73 19 -413 19 -205 0 -373 2 -373 3 0 12
111 252 117 254 5 2 44 -33 88 -77 l80 -80 90 0 90 1 -195 189 c-107 104 -195
188 -196 187 -1 -1 -57 -127 -124 -279 -133 -302 -155 -335 -239 -358 -136
-36 -276 107 -247 253 7 36 327 774 358 825 11 18 41 45 66 60 38 22 59 27
112 27 65 0 67 -1 493 -217 l427 -217 400 -392 400 -393 -351 -345 -351 -346
4 -81 3 -81 403 396 c357 351 403 400 409 433 3 20 3 47 0 60 -6 22 -421 442
-716 725 l-134 128 -421 213 c-231 117 -446 220 -476 228 -65 17 -119 17 -181
0z m-519 -1244 c0 -24 78 -95 136 -123 55 -27 76 -32 137 -32 107 0 210 52
258 129 l21 34 383 0 c409 0 420 -1 452 -49 17 -24 18 -70 21 -571 2 -300 0
-564 -3 -588 -4 -27 -17 -55 -35 -75 l-28 -32 -994 -3 -994 -2 -35 23 c-59 40
-59 40 -56 660 2 516 3 564 19 587 35 48 42 49 391 50 180 0 327 -4 327 -8z"/>
<path d="M995 1456 c-77 -35 -115 -109 -115 -228 0 -104 11 -142 60 -216 22
-33 40 -70 40 -82 0 -12 -15 -37 -33 -55 -27 -27 -49 -36 -129 -54 -54 -13
-109 -31 -123 -42 -22 -18 -25 -28 -25 -85 l0 -64 405 0 405 0 0 64 c0 57 -3
67 -26 85 -14 11 -60 27 -102 36 -133 29 -182 63 -182 127 0 11 11 34 25 50
52 62 68 107 73 209 3 62 0 109 -8 133 -16 48 -66 105 -107 122 -41 18 -119
17 -158 0z"/>
<path d="M1756 1448 c-21 -29 -20 -51 2 -71 16 -15 53 -17 318 -17 220 0 303
3 312 12 20 20 15 76 -7 88 -12 6 -130 10 -315 10 -293 0 -295 0 -310 -22z"/>
<path d="M1562 1234 c-30 -20 -30 -68 0 -88 19 -14 75 -16 408 -16 424 0 430
1 430 59 0 61 3 61 -426 61 -336 0 -393 -2 -412 -16z"/>
<path d="M1813 944 c-15 -24 -15 -29 -2 -53 l15 -26 276 -3 c301 -3 301 -3
301 55 0 51 -14 53 -305 53 l-268 0 -17 -26z"/>
<path d="M1760 730 c-11 -11 -20 -29 -20 -40 0 -11 9 -29 20 -40 19 -19 33
-20 314 -20 l295 0 19 25 c23 29 19 59 -11 80 -18 12 -72 15 -309 15 -275 0
-289 -1 -308 -20z"/>
<path d="M3025 2768 c-91 -90 -165 -168 -165 -174 0 -20 891 -889 911 -889 21
0 349 310 349 331 0 8 -156 168 -347 357 -500 492 -547 537 -565 537 -9 0 -91
-73 -183 -162z m934 -684 c12 -15 21 -35 21 -45 0 -54 -93 -81 -124 -37 -51
73 48 151 103 82z"/>
</g>
</svg>
