<svg width="81" height="80" viewBox="0 0 81 80" fill="#FFFFFF" xmlns="http://www.w3.org/2000/svg">
<path d="M77.036 44.5971C77.4415 43.8351 77.1515 42.8892 76.3883 42.4842C67.6193 37.8317 56.9222 38.9475 49.3233 45.182L46.7947 42.6574L50.9242 38.5345C51.5353 37.9243 51.5353 36.935 50.9242 36.3246C50.3129 35.7145 49.3223 35.7145 48.7109 36.3246L44.5814 40.4476L34.5059 30.3881C36.7976 27.3195 38.2395 23.7152 38.6941 19.8772C39.2179 15.4529 38.3842 11.0273 36.2828 7.0793C35.8773 6.31727 34.9295 6.0279 34.1664 6.43274C33.4032 6.83774 33.1134 7.78367 33.5189 8.5457C36.8895 14.8785 36.3619 22.3981 32.2658 28.1516L25.626 21.5224C24.6944 20.5922 23.3701 20.2063 22.0834 20.4892C20.7967 20.7725 19.7578 21.6789 19.3043 22.9141L0.239754 74.8407C-0.280914 76.259 0.0600947 77.8037 1.13007 78.8718C1.8689 79.6095 2.83496 80.0001 3.83013 80.0001C4.27614 80.0001 4.72795 79.9215 5.16756 79.7607L57.1765 60.7263C58.4136 60.2736 59.3214 59.2363 59.6053 57.9517C59.8889 56.6671 59.5022 55.3449 58.5705 54.4147L51.5501 47.4052C58.1626 42.1374 67.3617 41.2338 74.9197 45.2438C75.6828 45.6488 76.6302 45.3591 77.036 44.5971ZM24.9263 69.2009L10.8163 55.1133L14.726 44.4648L35.5918 65.2975L24.9263 69.2009ZM17.2788 71.9998L8.013 62.7488L9.629 58.3474L21.6872 70.3864L17.2788 71.9998ZM4.09023 76.8265C3.71933 76.9623 3.46314 76.7817 3.34311 76.6621C3.22323 76.5425 3.04247 76.2865 3.17847 75.9164L6.82549 65.9828L14.0394 73.1853L4.09023 76.8265ZM56.5488 57.2788C56.5175 57.4205 56.4174 57.6757 56.0994 57.7921L46.4784 61.3131L37.5773 52.426C36.9662 51.8157 35.9752 51.8158 35.3641 52.4258C34.753 53.036 34.7528 54.0254 35.364 54.6355L43.2392 62.4984L38.8309 64.1119L15.9133 41.2307L17.5293 36.8293L25.4048 44.6921C25.7102 44.9973 26.1109 45.1498 26.5114 45.1498C26.9118 45.1498 27.3125 44.9971 27.6179 44.6921C28.2291 44.082 28.2291 43.0926 27.6178 42.4824L18.7167 33.5954L22.2433 23.9897C22.3599 23.6722 22.6155 23.5724 22.7576 23.541C22.8008 23.5314 22.8563 23.5233 22.9194 23.5233C23.0632 23.5233 23.2465 23.5658 23.413 23.7322L56.3574 56.6243C56.5968 56.8635 56.5801 57.1371 56.5488 57.2788Z" fill="white"/>
<path d="M47.1998 12.4696C48.0641 12.4696 48.7647 11.7701 48.7647 10.9071C48.7647 9.59854 49.8311 8.53401 51.1418 8.53401C54.1782 8.53401 56.6487 6.06761 56.6487 3.03589C56.6487 2.17292 55.9479 1.47339 55.0837 1.47339C54.2195 1.47339 53.5187 2.17292 53.5187 3.03589C53.5187 4.34448 52.4523 5.40901 51.1418 5.40901C48.1053 5.40901 45.6348 7.87542 45.6348 10.9071C45.6348 11.7701 46.3356 12.4696 47.1998 12.4696Z" fill="white"/>
<path d="M61.0845 27.2179C64.2206 27.2179 66.772 24.6706 66.772 21.5396C66.772 20.1318 67.9191 18.9863 69.3293 18.9863C70.1935 18.9863 70.8943 18.2868 70.8943 17.4238C70.8943 16.5609 70.1935 15.8613 69.3293 15.8613C66.1934 15.8613 63.642 18.4087 63.642 21.5396C63.642 22.9474 62.4947 24.0929 61.0845 24.0929C60.2203 24.0929 59.5195 24.7924 59.5195 25.6554C59.5195 26.5184 60.2203 27.2179 61.0845 27.2179Z" fill="white"/>
<path d="M70.1113 30.2322C70.1113 32.9892 72.3579 35.2322 75.1193 35.2322C77.8807 35.2322 80.1272 32.9892 80.1272 30.2322C80.1272 27.4751 77.8807 25.2322 75.1193 25.2322C72.3579 25.2322 70.1113 27.4751 70.1113 30.2322ZM75.1193 28.3572C76.1548 28.3572 76.9972 29.1983 76.9972 30.2322C76.9972 31.2661 76.1548 32.1072 75.1193 32.1072C74.0837 32.1072 73.2413 31.2661 73.2413 30.2322C73.2413 29.1983 74.0837 28.3572 75.1193 28.3572Z" fill="white"/>
<path d="M49.3136 26.5396C52.075 26.5396 54.3216 24.2966 54.3216 21.5396C54.3216 18.7825 52.075 16.5396 49.3136 16.5396C46.5522 16.5396 44.3057 18.7825 44.3057 21.5396C44.3057 24.2966 46.5524 26.5396 49.3136 26.5396ZM49.3136 19.6646C50.3492 19.6646 51.1916 20.5056 51.1916 21.5396C51.1916 22.5735 50.3492 23.4146 49.3136 23.4146C48.2781 23.4146 47.4356 22.5735 47.4356 21.5396C47.4356 20.5056 48.2781 19.6646 49.3136 19.6646Z" fill="white"/>
<path d="M20.0324 10C22.7938 10 25.0403 7.75703 25.0403 5C25.0403 2.24297 22.7938 0 20.0324 0C17.2709 0 15.0244 2.24297 15.0244 5C15.0244 7.75703 17.2709 10 20.0324 10ZM20.0324 3.125C21.0679 3.125 21.9103 3.96609 21.9103 5C21.9103 6.03391 21.0679 6.875 20.0324 6.875C18.9968 6.875 18.1544 6.03391 18.1544 5C18.1544 3.96609 18.9968 3.125 20.0324 3.125Z" fill="white"/>
<path d="M70.8162 54.8524C70.2053 54.2423 69.2146 54.2423 68.6029 54.8523C67.9917 55.4624 67.9917 56.4518 68.6029 57.0619L70.0783 58.5351C70.384 58.8402 70.7845 58.9927 71.1849 58.9927C71.5854 58.9927 71.9859 58.8401 72.2915 58.5351C72.9027 57.9249 72.9027 56.9355 72.2915 56.3254L70.8162 54.8524Z" fill="white"/>
<path d="M78.1932 62.2181C77.5819 61.608 76.5913 61.608 75.9798 62.2181C75.3687 62.8283 75.3687 63.8176 75.9798 64.428L77.4553 65.9011C77.7609 66.2062 78.1614 66.3587 78.5619 66.3587C78.9624 66.3587 79.3628 66.2062 79.6685 65.9011C80.2796 65.2909 80.2796 64.3016 79.6685 63.6912L78.1932 62.2181Z" fill="white"/>
<path d="M77.4553 54.8524L75.9798 56.3256C75.3687 56.9357 75.3687 57.9251 75.9798 58.5352C76.2855 58.8404 76.6859 58.9929 77.0864 58.9929C77.4869 58.9929 77.8875 58.8402 78.193 58.5352L79.6685 57.0621C80.2796 56.452 80.2796 55.4626 79.6685 54.8524C79.0573 54.2421 78.0664 54.2423 77.4553 54.8524Z" fill="white"/>
<path d="M70.0783 62.2181L68.6029 63.6912C67.9917 64.3014 67.9917 65.2908 68.6029 65.9011C68.9085 66.2062 69.309 66.3587 69.7095 66.3587C70.1101 66.3587 70.5104 66.2062 70.8161 65.9011L72.2915 64.428C72.9027 63.8178 72.9027 62.8284 72.2915 62.2181C71.6803 61.608 70.6896 61.608 70.0783 62.2181Z" fill="white"/>
<path d="M77.0866 4.59809C77.4871 4.59809 77.8877 4.44559 78.1932 4.14043L79.6686 2.6673C80.2797 2.05715 80.2797 1.06777 79.6686 0.457617C79.0573 -0.152539 78.0664 -0.152539 77.4553 0.457617L75.9798 1.93074C75.3687 2.5409 75.3687 3.53027 75.9798 4.14043C76.2856 4.44559 76.6859 4.59809 77.0866 4.59809Z" fill="white"/>
<path d="M69.7096 11.9637C70.1103 11.9637 70.5106 11.8112 70.8162 11.5061L72.2917 10.0329C72.9028 9.42278 72.9028 8.43341 72.2917 7.8231C71.6804 7.21294 70.6898 7.21294 70.0783 7.8231L68.6029 9.29622C67.9917 9.90638 67.9917 10.8958 68.6029 11.5061C68.9087 11.8112 69.3092 11.9637 69.7096 11.9637Z" fill="white"/>
<path d="M78.1932 7.8231C77.5819 7.21294 76.5913 7.21294 75.9798 7.8231C75.3687 8.43325 75.3687 9.42263 75.9798 10.0329L77.4553 11.5061C77.7609 11.8112 78.1614 11.9637 78.5619 11.9637C78.9624 11.9637 79.3628 11.8112 79.6685 11.5061C80.2796 10.8959 80.2796 9.90653 79.6685 9.29622L78.1932 7.8231Z" fill="white"/>
<path d="M70.0785 4.14043C70.3841 4.44559 70.7846 4.59809 71.1851 4.59809C71.5856 4.59809 71.9861 4.44559 72.2917 4.14043C72.9028 3.53027 72.9028 2.5409 72.2917 1.93074L70.8162 0.457617C70.2053 -0.152539 69.2146 -0.152539 68.6029 0.457617C67.9917 1.06777 67.9917 2.05715 68.6029 2.6673L70.0785 4.14043Z" fill="white"/>
<path d="M31.4908 46.9966C31.0792 46.9966 30.6754 47.1638 30.3843 47.4544C30.0932 47.745 29.9258 48.1481 29.9258 48.5591C29.9258 48.97 30.0932 49.3731 30.3843 49.6638C30.6754 49.9544 31.0792 50.1216 31.4908 50.1216C31.9024 50.1216 32.3061 49.9544 32.5972 49.6638C32.8883 49.3731 33.0557 48.97 33.0557 48.5591C33.0557 48.1481 32.8883 47.745 32.5972 47.4544C32.3061 47.1638 31.9024 46.9966 31.4908 46.9966Z" fill="white"/>
<path d="M54.3234 30.721L53.1888 31.8539C52.5777 32.464 52.5777 33.4534 53.1888 34.0637C53.4945 34.3689 53.8949 34.5214 54.2954 34.5214C54.6959 34.5214 55.0964 34.3689 55.402 34.0637L56.5366 32.9309C57.1477 32.3207 57.1477 31.3314 56.5366 30.721C55.9253 30.1109 54.9347 30.1109 54.3234 30.721Z" fill="white"/>
</svg>
