<svg width="14" height="14" viewBox="0 0 14 14" fill="none" xmlns="http://www.w3.org/2000/svg">
    <path d="M2.1875 8.75H3.6458C3.8873 8.75 4.0833 8.554 4.0833 8.3125V6.8542C4.0833 6.6127 3.8873 6.4167 3.6458 6.4167H2.1875C1.946 6.4167 1.75 6.6127 1.75 6.8542V8.3125C1.75 8.554 1.946 8.75 2.1875 8.75ZM2.1875 12.25H3.6458C3.8873 12.25 4.0833 12.054 4.0833 11.8125V10.3542C4.0833 10.1127 3.8873 9.9167 3.6458 9.9167H2.1875C1.946 9.9167 1.75 10.1127 1.75 10.3542V11.8125C1.75 12.054 1.946 12.25 2.1875 12.25ZM6.2708 8.75H7.7292C7.9707 8.75 8.1667 8.554 8.1667 8.3125V6.8542C8.1667 6.6127 7.9707 6.4167 7.7292 6.4167H6.2708C6.0293 6.4167 5.8333 6.6127 5.8333 6.8542V8.3125C5.8333 8.554 6.0293 8.75 6.2708 8.75ZM6.2708 12.25H7.7292C7.9707 12.25 8.1667 12.054 8.1667 11.8125V10.3542C8.1667 10.1127 7.9707 9.9167 7.7292 9.9167H6.2708C6.0293 9.9167 5.8333 10.1127 5.8333 10.3542V11.8125C5.8333 12.054 6.0293 12.25 6.2708 12.25ZM10.3542 8.75H11.8125C12.054 8.75 12.25 8.554 12.25 8.3125V6.8542C12.25 6.6127 12.054 6.4167 11.8125 6.4167H10.3542C10.1127 6.4167 9.9167 6.6127 9.9167 6.8542V8.3125C9.9167 8.554 10.1127 8.75 10.3542 8.75Z" fill="#D6D6D6"/>
    <path d="M12.25 1.75H11.6667V0.583297C11.6667 0.261379 11.4053 0 11.0833 0H10.5C10.178 0 9.9167 0.261379 9.9167 0.583297V1.75H4.0833V0.583297C4.0833 0.261379 3.82203 0 3.5 0H2.9167C2.59468 0 2.3333 0.261379 2.3333 0.583297V1.75H1.75C0.785176 1.75 0 2.53518 0 3.5V12.25C0 13.2148 0.785176 14 1.75 14H12.25C13.2148 14 14 13.2148 14 12.25V3.5C14 2.53518 13.2148 1.75 12.25 1.75ZM12.8333 12.25C12.8333 12.5714 12.5714 12.8333 12.25 12.8333H1.75C1.4286 12.8333 1.1667 12.5714 1.1667 12.25V5.85668H12.8333V12.25Z" fill="#D6D6D6"/>
</svg>
