<svg xmlns="http://www.w3.org/2000/svg" enable-background="new 0 0 476.16 476.16" viewBox="0 0 476.16 476.16">
    <path fill="#fff" d="M260.113.256c27.11 39.264 48.236 82.339 62.686 127.812 33.065-5.187 64.911-16.343 93.986-32.922l8.533-5.291C384.841 38.629 325.127 6.243 260.113.256zM297.813 166.4c-19.83 2.271-39.774 3.411-59.733 3.413-19.96-.003-39.903-1.142-59.733-3.413-4.213 17.945-6.896 36.215-8.021 54.613h135.509c-1.125-18.398-3.809-36.668-8.022-54.613zM238.08 340.48c-16.816.015-33.62.886-50.347 2.611 12.305 36.743 29.223 71.776 50.347 104.26 21.124-32.484 38.041-67.518 50.347-104.26-16.727-1.725-33.531-2.596-50.347-2.611zM339.831 255.147c-1.04 20.137-3.763 40.153-8.141 59.836 36.337 6.036 71.283 18.595 103.151 37.069l9.643 6.007c18.303-31.424 29.141-66.634 31.676-102.912H339.831zM444.484 118.118l-9.643 6.008c-31.862 18.504-66.808 31.091-103.151 37.154 4.372 19.65 7.095 39.63 8.141 59.733H476.16c-2.538-36.272-13.375-71.475-31.676-102.895zM170.325 255.147c1.135 18.4 3.83 36.67 8.055 54.613 39.693-4.534 79.773-4.534 119.467 0 4.202-17.946 6.874-36.216 7.987-54.613H170.325zM41.318 124.126l-9.643-6.008C13.375 149.538 2.538 184.741 0 221.013h136.329c1.046-20.103 3.769-40.084 8.141-59.733-36.343-6.063-71.29-18.65-103.152-37.154zM153.361 348.109c-33.062 5.189-64.907 16.338-93.986 32.905l-8.533 5.308c40.474 51.228 100.192 83.61 165.205 89.583-27.114-39.257-48.24-82.326-62.686-127.796zM238.08 28.826c-21.121 32.48-38.038 67.507-50.347 104.243 16.726 1.734 33.531 2.605 50.347 2.611 16.816-.006 33.62-.878 50.347-2.611-12.309-36.736-29.226-71.763-50.347-104.243zM416.785 381.013c-29.079-16.566-60.924-27.715-93.986-32.905-14.461 45.473-35.605 88.542-62.737 127.795 65.014-5.973 124.731-38.355 165.205-89.583l-8.482-5.307zM50.893 89.856l8.482 5.291c29.075 16.579 60.921 27.734 93.986 32.922C167.826 82.592 188.97 39.518 216.098.257 151.085 6.243 91.371 38.629 50.893 89.856zM136.329 255.147H0c2.535 36.278 13.372 71.488 31.676 102.912l9.643-6.007c31.868-18.474 66.814-31.032 103.151-37.069-4.379-19.684-7.102-39.699-8.141-59.836z"/>
</svg>
