<svg width="355" height="296" viewBox="0 0 355 296" fill="none" xmlns="http://www.w3.org/2000/svg">
<path d="M128 147.983C128 120.991 149.373 98.9926 176.113 98L146.403 186.749C135.171 177.577 128 163.618 128 147.983Z" fill="#3674C9"/>
<path d="M177.444 148.769L193.675 100.472C213.611 107.051 228 125.836 228 147.983C228 175.606 205.614 198 178 198C168.485 198 159.591 195.341 152.02 190.726L168.924 171.4C169.938 170.241 171.803 170.48 172.491 171.858L178.211 183.301C178.915 184.709 180.837 184.92 181.829 183.699L205 155.17C206.151 153.754 205.143 151.637 203.319 151.637H179.494C178.008 151.637 176.963 150.175 177.444 148.769Z" fill="#3674C9"/>
</svg>
