<svg xmlns="http://www.w3.org/2000/svg" width="34" height="34">
    <path fill="#15B372" fill-rule="evenodd" d="M17.271.27C26.51.27 34 7.76 34 17c0 9.239-7.49 16.73-16.729 16.73C8.03 33.73.541 26.239.541 17 .541 7.76 8.03.27 17.271.27z"/>
    <path fill="#FFF" fill-rule="evenodd" d="M25.163 13.586l-8.757 9.192c-.12.125-.26.21-.404.282-.069.152-.15.3-.27.425-.557.586-1.463.586-2.02 0l-4.718-4.95c-.558-.585-.558-1.535 0-2.121.557-.585 1.464-.585 2.02 0l3.707 3.89 8.42-8.839c.559-.587 1.463-.587 2.022 0 .557.586.557 1.535 0 2.121z"/>
</svg>
