<svg viewBox="0 0 100 100" fill="none" xmlns="http://www.w3.org/2000/svg" id='svg'>
<path d="M49.9997 0.833496C22.9088 0.833496 0.833008 22.9093 0.833008 50.0002C0.833008 77.091 22.9088 99.1668 49.9997 99.1668C77.0905 99.1668 99.1664 77.091 99.1664 50.0002C99.1664 22.9093 77.0905 0.833496 49.9997 0.833496ZM71.3872 67.5527C70.6988 68.7327 69.4697 69.3718 68.1913 69.3718C67.5522 69.3718 66.913 69.2243 66.323 68.831L51.0813 59.7352C47.2955 57.4735 44.493 52.5077 44.493 48.1318V27.9735C44.493 25.9577 46.1647 24.286 48.1805 24.286C50.1963 24.286 51.868 25.9577 51.868 27.9735V48.1318C51.868 49.9018 53.343 52.5077 54.8672 53.3927L70.1088 62.4885C71.8788 63.521 72.4688 65.7827 71.3872 67.5527Z" fill="white"/>
</svg>
