<svg viewBox="0 0 78 74" fill="none" xmlns="http://www.w3.org/2000/svg" id='svg'>
<path d="M77.036 38.5971C77.4415 37.8351 77.1515 36.8892 76.3883 36.4842C67.6193 31.8317 56.9222 32.9475 49.3233 39.182L46.7947 36.6574L50.9242 32.5345C51.5353 31.9243 51.5353 30.935 50.9242 30.3246C50.3129 29.7145 49.3223 29.7145 48.7109 30.3246L44.5814 34.4476L34.5059 24.3881C36.7976 21.3195 38.2395 17.7152 38.6941 13.8772C39.2179 9.45286 38.3842 5.02725 36.2828 1.0793C35.8773 0.317271 34.9295 0.0278969 34.1664 0.432739C33.4032 0.837737 33.1134 1.78367 33.5189 2.5457C36.8895 8.87849 36.3619 16.3981 32.2658 22.1516L25.626 15.5224C24.6944 14.5922 23.3701 14.2063 22.0834 14.4892C20.7967 14.7725 19.7578 15.6789 19.3043 16.9141L0.239754 68.8407C-0.280914 70.259 0.0600947 71.8037 1.13007 72.8718C1.8689 73.6095 2.83496 74.0001 3.83013 74.0001C4.27614 74.0001 4.72795 73.9215 5.16756 73.7607L57.1765 54.7263C58.4136 54.2736 59.3214 53.2363 59.6053 51.9517C59.8889 50.6671 59.5022 49.3449 58.5705 48.4147L51.5501 41.4052C58.1626 36.1374 67.3617 35.2338 74.9197 39.2438C75.6828 39.6488 76.6302 39.3591 77.036 38.5971ZM24.9263 63.2009L10.8163 49.1133L14.726 38.4648L35.5918 59.2975L24.9263 63.2009ZM17.2788 65.9998L8.013 56.7488L9.629 52.3474L21.6872 64.3864L17.2788 65.9998ZM4.09023 70.8265C3.71933 70.9623 3.46314 70.7817 3.34311 70.6621C3.22323 70.5425 3.04247 70.2865 3.17847 69.9164L6.82549 59.9828L14.0394 67.1853L4.09023 70.8265ZM56.5488 51.2788C56.5175 51.4205 56.4174 51.6757 56.0994 51.7921L46.4784 55.3131L37.5773 46.426C36.9662 45.8157 35.9752 45.8158 35.3641 46.4258C34.753 47.036 34.7528 48.0254 35.364 48.6355L43.2392 56.4984L38.8309 58.1119L15.9133 35.2307L17.5293 30.8293L25.4048 38.6921C25.7102 38.9973 26.1109 39.1498 26.5114 39.1498C26.9118 39.1498 27.3125 38.9971 27.6179 38.6921C28.2291 38.082 28.2291 37.0926 27.6178 36.4824L18.7167 27.5954L22.2433 17.9897C22.3599 17.6722 22.6155 17.5724 22.7576 17.541C22.8008 17.5314 22.8563 17.5233 22.9194 17.5233C23.0632 17.5233 23.2465 17.5658 23.413 17.7322L56.3574 50.6243C56.5968 50.8635 56.5801 51.1371 56.5488 51.2788Z" fill="white"/>
</svg>
