<svg viewBox="0 0 125 77" fill="none" xmlns="http://www.w3.org/2000/svg" id='svg'>
<path d="M48.2245 45.1516C41.9822 52.3405 42.2892 63.4948 48.8897 70.3767C52.5737 74.2398 57.5113 76.1585 62.4233 76.1585C67.2329 76.1585 72.017 74.3165 75.6754 70.6581C77.3383 68.9952 78.6431 67.0765 79.5385 65.0554L103.715 18.1868C104.354 16.8565 102.973 15.475 101.642 16.1145L54.7738 40.2908C52.3434 41.3653 50.1177 43.0026 48.2245 45.1516ZM56.7693 51.7521C58.3299 50.1915 60.3766 49.3984 62.4233 49.3984C64.4699 49.3984 66.5166 50.1915 68.1027 51.7521C71.2239 54.8732 71.2239 59.9643 68.1027 63.0855C66.5422 64.6461 64.4955 65.4391 62.4233 65.4391C60.3766 65.4391 58.3299 64.6461 56.7693 63.0855C53.6226 59.9387 53.6226 54.8732 56.7693 51.7521ZM112.618 63.3413C112.618 54.4895 110.29 45.7912 105.864 38.1929C104.15 35.2253 105.147 31.4389 108.115 29.7249C111.083 28.0108 114.869 29.0085 116.583 31.9762C122.084 41.4676 125 52.3149 125 63.3413C125 66.7695 122.237 69.5325 118.809 69.5325C115.406 69.5325 112.618 66.7695 112.618 63.3413ZM0 63.3413C0 28.8806 28.0393 0.841309 62.5 0.841309C70.5076 0.841309 78.3105 2.32514 85.6785 5.2928C88.8508 6.57197 90.3858 10.1536 89.1322 13.326C87.8531 16.4983 84.2714 18.0333 81.0991 16.7797C75.1893 14.426 68.9214 13.2236 62.5 13.2236C34.87 13.2236 12.3823 35.7113 12.3823 63.3413C12.3823 66.7695 9.61932 69.5325 6.19116 69.5325C2.763 69.5325 0 66.7695 0 63.3413Z" fill="white"/>
</svg>
