<svg viewBox="0 0 160 86" fill="none" xmlns="http://www.w3.org/2000/svg" id="svg">
<path d="M138.694 11.7334C140.298 11.9074 141.734 10.756 141.913 9.15696L143.41 9.3207L145.971 9.73774L146.006 9.74286C146.111 11.2319 145.569 12.4165 145.569 12.4165L146.771 11.4213C146.771 11.4213 150.824 5.32685 146.418 3.47959L144.338 3.08814L139.38 2.14916C139.38 2.14916 136.988 0.463093 136.399 0.869899L136.241 4.4109C136.241 4.4109 142.217 4.17551 144.656 6.66751C145.144 7.18178 145.469 7.72674 145.689 8.26659L135.739 7.04362L135.58 8.45592L136.131 8.51477C135.944 10.1164 137.1 11.5569 138.694 11.7334ZM42.6625 10.3416H78.7479V11.1833H42.6625V10.3416ZM142.427 18.36L139.088 17.8764L139.459 15.3256L142.798 15.8091L142.427 18.36ZM18.3821 0H71.6224V0.841753H18.3821V0ZM60.7078 31.1833H67.6976V32.0225H60.7078V31.1833ZM158.914 40.1765C157.602 34.4198 158.175 28.4175 156.266 22.7427C155.731 19.8158 152.648 17.9046 148.324 16.6637L140.774 24.109L142.153 20.394L138.804 19.9079L138.889 24.3623L134.306 14.7166C126.472 14.3303 118.395 14.6936 113.544 14.9034V11.6618H112.579L112.961 10.8507L112.375 10.5769L111.881 11.6618H99.8046V10.7458H99.0268V11.6618H98.1569L99.1803 15.4842H107.91C104.635 17.1933 105.262 23.2621 109.829 23.2621C114.327 23.2621 125.003 23.2621 129.499 23.2621C129.509 23.4079 129.504 23.5538 129.514 23.7022C129.954 29.0444 129.45 37.7203 129.089 42.1773L135.181 43.2467L134.936 44.6846L128.867 43.6203C124.08 55.323 122.207 68.635 121.253 81.159C120.784 87.3199 130.361 87.2815 130.819 81.159C131.512 71.9892 132.838 62.4331 135.527 53.4629C136.067 53.6216 136.622 53.729 137.195 53.7853C137.405 53.8007 137.604 53.8058 137.791 53.8109C138.515 63.2698 139.175 73.6164 140.452 82.5303C141.327 88.6171 150.543 86.0099 149.675 79.9872C148.237 70.0166 147.751 57.8661 146.871 47.847C146.851 47.6474 146.823 47.453 146.787 47.2611C146.84 47.105 146.861 46.9566 146.902 46.8056L141.304 45.8129L141.549 44.375L147.145 45.355C147.286 43.7866 148.263 32.5291 147.838 24.0885C148.532 25.1042 148.892 26.6931 149.276 28.6273C150.182 33.1585 149.934 37.8559 150.955 42.3692C152.144 47.5425 160.083 45.3422 158.914 40.1765ZM139.101 28.855C139.705 28.855 140.191 29.3412 140.191 29.9424C140.191 30.5437 139.71 31.0323 139.101 31.0323C138.497 31.0323 138.008 30.5437 138.008 29.9424C138.008 29.3412 138.495 28.855 139.101 28.855ZM138.653 32.5905C139.257 32.5905 139.741 33.0766 139.741 33.6804C139.741 34.2817 139.26 34.7704 138.653 34.7704C138.052 34.7704 137.566 34.2817 137.566 33.6804C137.566 33.0766 138.049 32.5905 138.653 32.5905ZM138.356 36.0778C138.963 36.0778 139.446 36.5639 139.446 37.1651C139.446 37.7664 138.965 38.2551 138.356 38.2551C137.76 38.2551 137.266 37.7689 137.266 37.1651C137.266 36.5664 137.75 36.0778 138.356 36.0778ZM140.375 45.2654L136.008 44.5311L136.194 43.4182L140.557 44.1857L140.375 45.2654ZM60.7078 19.6469H83.9494V20.4887H60.7078V19.6469ZM14.7055 24.897H29.1867V25.7388H14.7055V24.897ZM72.1418 48.0491C66.7612 43.4335 57.8831 39.0968 49.6933 36.8351C50.9367 33.5858 51.4689 30.1471 50.5197 26.6342C49.1279 21.4737 44.108 18.6593 39.3748 17.1856C34.3063 15.607 32.1546 23.5359 37.1898 25.1042C39.6281 25.8641 42.0791 26.8671 42.7904 29.5203C43.297 31.3854 42.4169 33.5653 41.419 35.433C37.5147 35.8628 34.3856 39.8567 34.117 43.6203C32.2237 46.6138 28.9565 46.2837 23.0514 46.9771C15.8901 47.8163 6.08324 45.8871 0.96875 57.6129L10.3764 69.927C13.0066 63.9017 17.1514 61.0694 24.2513 60.243C27.6925 59.8439 31.6992 59.0584 35.3553 56.9963C35.2095 58.2218 34.882 59.4524 34.3575 60.6729C33.4723 62.7273 33.7307 65.0556 35.8338 66.276C37.5864 67.2969 40.5619 66.8619 41.4497 64.8151C43.1844 60.7931 43.9136 56.7941 43.3686 52.831C45.6559 52.5649 52.8173 51.1782 57.7399 57.1677C59.715 62.9704 59.8788 71.5645 58.5637 77.8457C57.4815 83.0164 65.3924 85.2168 66.4798 80.0306C67.736 74.0335 68.5113 59.345 69.2225 58.9024C71.3307 63.6459 71.7734 71.4135 70.4941 77.1037C69.3377 82.2617 77.2537 84.4492 78.4127 79.2861C82.4117 62.8809 79.0754 53.9951 72.1418 48.0491ZM28.8464 39.0329C30.5274 39.4806 32.257 38.4828 32.7047 36.7993C33.155 35.1132 32.1546 33.3836 30.4685 32.9359L30.6246 32.3551L29.1381 31.956L26.4747 42.4485C25.7429 41.9726 25.0419 41.2716 24.5635 40.2149C23.0002 36.7788 25.5869 30.8328 25.5869 30.8328L21.9461 29.6149C21.3039 30.055 22.0663 33.1278 22.0663 33.1278L21.0685 38.5109L20.6489 40.7675C20.7845 45.9409 28.5292 44.2318 28.5292 44.2318L30.008 43.4156C30.008 43.4156 29.0511 43.4693 27.8947 43.1188L28.4243 40.614L28.8464 39.0329Z" fill="white"/>
</svg>
