<svg viewBox="0 0 81 80" fill="none" xmlns="http://www.w3.org/2000/svg" id="svg">
<path d="M77.4716 44.5974C77.8771 43.8353 77.5871 42.8894 76.8239 42.4844C68.0549 37.8319 57.3578 38.9477 49.7589 45.1822L47.2303 42.6577L51.3598 38.5347C51.971 37.9246 51.971 36.9352 51.3598 36.3249C50.7486 35.7147 49.7579 35.7147 49.1465 36.3249L45.017 40.4478L34.9415 30.3884C37.2332 27.3198 38.6751 23.7154 39.1297 19.8775C39.6535 15.4531 38.8198 11.0275 36.7184 7.07954C36.3129 6.31752 35.3651 6.02814 34.6021 6.43298C33.8388 6.83798 33.549 7.78392 33.9545 8.54594C37.3251 14.8787 36.7976 22.3984 32.7014 28.1518L26.0617 21.5226C25.13 20.5925 23.8057 20.2065 22.519 20.4895C21.2323 20.7728 20.1935 21.6792 19.7399 22.9143L0.675362 74.841C0.154694 76.2593 0.495703 77.8039 1.56568 78.8721C2.3045 79.6097 3.27057 80.0003 4.26573 80.0003C4.71175 80.0003 5.16356 79.9217 5.60316 79.761L57.6121 60.7265C58.8492 60.2739 59.757 59.2365 60.0409 57.952C60.3245 56.6673 59.9378 55.3451 59.0062 54.415L51.9857 47.4055C58.5982 42.1377 67.7973 41.2341 75.3553 45.2441C76.1184 45.6491 77.0658 45.3594 77.4716 44.5974ZM25.3619 69.2012L11.252 55.1136L15.1616 44.465L36.0274 65.2977L25.3619 69.2012ZM17.7144 72.0001L8.44861 62.749L10.0646 58.3476L22.1228 70.3866L17.7144 72.0001ZM4.52583 76.8268C4.15493 76.9625 3.89875 76.7819 3.77871 76.6624C3.65884 76.5427 3.47808 76.2868 3.61408 75.9166L7.2611 65.9831L14.475 73.1855L4.52583 76.8268ZM56.9844 57.279C56.9531 57.4207 56.8531 57.6759 56.5351 57.7923L46.914 61.3134L38.0129 52.4262C37.4018 51.8159 36.4109 51.8161 35.7997 52.4261C35.1886 53.0362 35.1884 54.0256 35.7996 54.6358L43.6749 62.4987L39.2665 64.1121L16.3489 41.231L17.9649 36.8296L25.8404 44.6924C26.1458 44.9975 26.5465 45.15 26.947 45.15C27.3474 45.15 27.7481 44.9974 28.0536 44.6924C28.6647 44.0822 28.6647 43.0928 28.0534 42.4827L19.1523 33.5957L22.679 23.9899C22.7955 23.6724 23.0511 23.5726 23.1932 23.5412C23.2364 23.5317 23.292 23.5235 23.355 23.5235C23.4988 23.5235 23.6821 23.566 23.8486 23.7324L56.793 56.6245C57.0324 56.8637 57.0157 57.1373 56.9844 57.279Z" fill="white"/>
<path d="M47.6349 12.4699C48.4992 12.4699 49.1999 11.7704 49.1999 10.9074C49.1999 9.59879 50.2662 8.53426 51.5769 8.53426C54.6133 8.53426 57.0838 6.06785 57.0838 3.03613C57.0838 2.17316 56.383 1.47363 55.5188 1.47363C54.6546 1.47363 53.9538 2.17316 53.9538 3.03613C53.9538 4.34473 52.8874 5.40926 51.5769 5.40926C48.5404 5.40926 46.0699 7.87566 46.0699 10.9074C46.0699 11.7704 46.7707 12.4699 47.6349 12.4699Z" fill="white"/>
<path d="M61.5197 27.2179C64.6558 27.2179 67.2072 24.6706 67.2072 21.5396C67.2072 20.1318 68.3543 18.9863 69.7645 18.9863C70.6287 18.9863 71.3295 18.2868 71.3295 17.4238C71.3295 16.5609 70.6287 15.8613 69.7645 15.8613C66.6286 15.8613 64.0772 18.4087 64.0772 21.5396C64.0772 22.9474 62.9299 24.0929 61.5197 24.0929C60.6555 24.0929 59.9547 24.7924 59.9547 25.6554C59.9547 26.5184 60.6555 27.2179 61.5197 27.2179Z" fill="white"/>
<path d="M70.5469 30.2324C70.5469 32.9895 72.7935 35.2324 75.5549 35.2324C78.3163 35.2324 80.5628 32.9895 80.5628 30.2324C80.5628 27.4754 78.3163 25.2324 75.5549 25.2324C72.7935 25.2324 70.5469 27.4754 70.5469 30.2324ZM75.5549 28.3574C76.5904 28.3574 77.4328 29.1985 77.4328 30.2324C77.4328 31.2663 76.5904 32.1074 75.5549 32.1074C74.5193 32.1074 73.6769 31.2663 73.6769 30.2324C73.6769 29.1985 74.5193 28.3574 75.5549 28.3574Z" fill="white"/>
<path d="M49.7496 26.54C52.5111 26.54 54.7576 24.2971 54.7576 21.54C54.7576 18.783 52.5111 16.54 49.7496 16.54C46.9882 16.54 44.7417 18.783 44.7417 21.54C44.7417 24.2971 46.9884 26.54 49.7496 26.54ZM49.7496 19.665C50.7852 19.665 51.6276 20.5061 51.6276 21.54C51.6276 22.5739 50.7852 23.415 49.7496 23.415C48.7141 23.415 47.8717 22.5739 47.8717 21.54C47.8717 20.5061 48.7141 19.665 49.7496 19.665Z" fill="white"/>
<path d="M20.4677 10C23.2291 10 25.4756 7.75703 25.4756 5C25.4756 2.24297 23.2291 0 20.4677 0C17.7063 0 15.4597 2.24297 15.4597 5C15.4597 7.75703 17.7063 10 20.4677 10ZM20.4677 3.125C21.5032 3.125 22.3456 3.96609 22.3456 5C22.3456 6.03391 21.5032 6.875 20.4677 6.875C19.4321 6.875 18.5897 6.03391 18.5897 5C18.5897 3.96609 19.4321 3.125 20.4677 3.125Z" fill="white"/>
<path d="M71.2517 54.8522C70.6407 54.242 69.6501 54.242 69.0383 54.852C68.4272 55.4622 68.4272 56.4515 69.0383 57.0617L70.5138 58.5348C70.8194 58.84 71.2199 58.9925 71.6204 58.9925C72.0208 58.9925 72.4213 58.8398 72.727 58.5348C73.3381 57.9247 73.3381 56.9353 72.727 56.3251L71.2517 54.8522Z" fill="white"/>
<path d="M78.629 62.2184C78.0177 61.6082 77.0271 61.6082 76.4156 62.2184C75.8045 62.8285 75.8045 63.8179 76.4156 64.4282L77.8911 65.9013C78.1967 66.2065 78.5972 66.359 78.9977 66.359C79.3981 66.359 79.7986 66.2065 80.1043 65.9013C80.7154 65.2912 80.7154 64.3018 80.1043 63.6915L78.629 62.2184Z" fill="white"/>
<path d="M77.8911 54.8522L76.4156 56.3253C75.8045 56.9355 75.8045 57.9248 76.4156 58.535C76.7213 58.8402 77.1217 58.9927 77.5222 58.9927C77.9227 58.9927 78.3233 58.84 78.6288 58.535L80.1043 57.0619C80.7154 56.4517 80.7154 55.4624 80.1043 54.8522C79.4931 54.2419 78.5022 54.2421 77.8911 54.8522Z" fill="white"/>
<path d="M70.5138 62.2184L69.0383 63.6915C68.4272 64.3016 68.4272 65.291 69.0383 65.9013C69.3439 66.2065 69.7444 66.359 70.1449 66.359C70.5455 66.359 70.9459 66.2065 71.2515 65.9013L72.727 64.4282C73.3381 63.818 73.3381 62.8287 72.727 62.2184C72.1157 61.6082 71.125 61.6082 70.5138 62.2184Z" fill="white"/>
<path d="M77.5224 4.59809C77.9228 4.59809 78.3235 4.44559 78.629 4.14043L80.1044 2.6673C80.7155 2.05715 80.7155 1.06777 80.1044 0.457617C79.4931 -0.152539 78.5022 -0.152539 77.8911 0.457617L76.4156 1.93074C75.8045 2.5409 75.8045 3.53027 76.4156 4.14043C76.7214 4.44559 77.1217 4.59809 77.5224 4.59809Z" fill="white"/>
<path d="M70.1449 11.9635C70.5456 11.9635 70.9459 11.811 71.2515 11.5058L72.727 10.0327C73.3381 9.42254 73.3381 8.43316 72.727 7.82285C72.1157 7.2127 71.1251 7.2127 70.5136 7.82285L69.0382 9.29598C68.4271 9.90613 68.4271 10.8955 69.0382 11.5058C69.344 11.811 69.7445 11.9635 70.1449 11.9635Z" fill="white"/>
<path d="M78.629 7.82285C78.0177 7.2127 77.0271 7.2127 76.4156 7.82285C75.8045 8.43301 75.8045 9.42238 76.4156 10.0327L77.8911 11.5058C78.1967 11.811 78.5972 11.9635 78.9977 11.9635C79.3981 11.9635 79.7986 11.811 80.1043 11.5058C80.7154 10.8957 80.7154 9.90629 80.1043 9.29598L78.629 7.82285Z" fill="white"/>
<path d="M70.5138 4.14043C70.8194 4.44559 71.2199 4.59809 71.6204 4.59809C72.0209 4.59809 72.4214 4.44559 72.727 4.14043C73.3381 3.53027 73.3381 2.5409 72.727 1.93074L71.2515 0.457617C70.6406 -0.152539 69.6499 -0.152539 69.0382 0.457617C68.4271 1.06777 68.4271 2.05715 69.0382 2.6673L70.5138 4.14043Z" fill="white"/>
<path d="M31.9263 46.9961C31.5147 46.9961 31.1109 47.1633 30.8198 47.4539C30.5287 47.7445 30.3613 48.1477 30.3613 48.5586C30.3613 48.9695 30.5287 49.3727 30.8198 49.6633C31.1109 49.9539 31.5147 50.1211 31.9263 50.1211C32.3378 50.1211 32.7416 49.9539 33.0327 49.6633C33.3238 49.3727 33.4912 48.9695 33.4912 48.5586C33.4912 48.1477 33.3238 47.7445 33.0327 47.4539C32.7416 47.1633 32.3378 46.9961 31.9263 46.9961Z" fill="white"/>
<path d="M54.7588 30.7213L53.6242 31.8541C53.0131 32.4643 53.0131 33.4536 53.6242 34.0639C53.9299 34.3691 54.3304 34.5216 54.7308 34.5216C55.1313 34.5216 55.5318 34.3691 55.8374 34.0639L56.972 32.9311C57.5832 32.321 57.5832 31.3316 56.972 30.7213C56.3608 30.1111 55.3701 30.1111 54.7588 30.7213Z" fill="white"/>
</svg>
