<svg viewBox="0 0 70 67" fill="none" xmlns="http://www.w3.org/2000/svg" id="svg">
<path d="M67.5334 47.0667L46.2 8.66675C43.3334 3.50008 39.3667 0.666748 35 0.666748C30.6334 0.666748 26.6667 3.50008 23.8 8.66675L2.46671 47.0667C-0.233286 51.9668 -0.533286 56.6668 1.63338 60.3667C3.80005 64.0667 8.06671 66.1001 13.6667 66.1001H56.3334C61.9334 66.1001 66.2001 64.0667 68.3667 60.3667C70.5334 56.6668 70.2334 51.9334 67.5334 47.0667ZM32.5 24.0001C32.5 22.6334 33.6334 21.5001 35 21.5001C36.3667 21.5001 37.5 22.6334 37.5 24.0001V40.6667C37.5 42.0334 36.3667 43.1668 35 43.1668C33.6334 43.1668 32.5 42.0334 32.5 40.6667V24.0001ZM37.3667 53.0334C37.2 53.1667 37.0334 53.3001 36.8667 53.4334C36.6667 53.5667 36.4667 53.6668 36.2667 53.7334C36.0667 53.8334 35.8667 53.9001 35.6334 53.9334C35.4334 53.9667 35.2 54.0001 35 54.0001C34.8 54.0001 34.5667 53.9667 34.3334 53.9334C34.1334 53.9001 33.9334 53.8334 33.7334 53.7334C33.5334 53.6668 33.3334 53.5667 33.1334 53.4334C32.9667 53.3001 32.8 53.1667 32.6334 53.0334C32.0334 52.4001 31.6667 51.5334 31.6667 50.6668C31.6667 49.8001 32.0334 48.9334 32.6334 48.3001C32.8 48.1668 32.9667 48.0334 33.1334 47.9001C33.3334 47.7668 33.5334 47.6668 33.7334 47.6001C33.9334 47.5001 34.1334 47.4334 34.3334 47.4001C34.7667 47.3001 35.2334 47.3001 35.6334 47.4001C35.8667 47.4334 36.0667 47.5001 36.2667 47.6001C36.4667 47.6668 36.6667 47.7668 36.8667 47.9001C37.0334 48.0334 37.2 48.1668 37.3667 48.3001C37.9667 48.9334 38.3334 49.8001 38.3334 50.6668C38.3334 51.5334 37.9667 52.4001 37.3667 53.0334Z" fill="white"/>
</svg>
