<svg width="125" height="125" viewBox="0 0 125 125" fill="#FFFFFF" xmlns="http://www.w3.org/2000/svg">
<path d="M48.2245 69.1516C41.9822 76.3405 42.2892 87.4948 48.8897 94.3767C52.5737 98.2398 57.5113 100.159 62.4233 100.159C67.2329 100.159 72.017 98.3165 75.6754 94.6581C77.3383 92.9952 78.6431 91.0765 79.5385 89.0554L103.715 42.1868C104.354 40.8565 102.973 39.475 101.642 40.1145L54.7738 64.2908C52.3434 65.3653 50.1177 67.0026 48.2245 69.1516ZM56.7693 75.7521C58.3299 74.1915 60.3766 73.3984 62.4233 73.3984C64.4699 73.3984 66.5166 74.1915 68.1027 75.7521C71.2239 78.8732 71.2239 83.9643 68.1027 87.0855C66.5422 88.6461 64.4955 89.4391 62.4233 89.4391C60.3766 89.4391 58.3299 88.6461 56.7693 87.0855C53.6226 83.9387 53.6226 78.8732 56.7693 75.7521ZM112.618 87.3413C112.618 78.4895 110.29 69.7912 105.864 62.1929C104.15 59.2253 105.147 55.4389 108.115 53.7249C111.083 52.0108 114.869 53.0085 116.583 55.9762C122.084 65.4676 125 76.3149 125 87.3413C125 90.7695 122.237 93.5325 118.809 93.5325C115.406 93.5325 112.618 90.7695 112.618 87.3413ZM0 87.3413C0 52.8806 28.0393 24.8413 62.5 24.8413C70.5076 24.8413 78.3105 26.3251 85.6785 29.2928C88.8508 30.572 90.3858 34.1536 89.1322 37.326C87.8531 40.4983 84.2714 42.0333 81.0991 40.7797C75.1893 38.426 68.9214 37.2236 62.5 37.2236C34.87 37.2236 12.3823 59.7113 12.3823 87.3413C12.3823 90.7695 9.61932 93.5325 6.19116 93.5325C2.763 93.5325 0 90.7695 0 87.3413Z" fill="white"/>
</svg>
