<svg width="56" height="53" viewBox="0 0 56 53" fill="#FFFFFF" xmlns="http://www.w3.org/2000/svg">
<path d="M54.0267 37.4533L36.9601 6.73325C34.6667 2.59992 31.4934 0.333252 28.0001 0.333252C24.5067 0.333252 21.3334 2.59992 19.0401 6.73325L1.9734 37.4533C-0.186604 41.3733 -0.426604 45.1333 1.30673 48.0933C3.04006 51.0533 6.4534 52.6799 10.9334 52.6799H45.0667C49.5467 52.6799 52.9601 51.0533 54.6934 48.0933C56.4267 45.1333 56.1867 41.3466 54.0267 37.4533ZM26.0001 18.9999C26.0001 17.9066 26.9067 16.9999 28.0001 16.9999C29.0934 16.9999 30.0001 17.9066 30.0001 18.9999V32.3333C30.0001 33.4266 29.0934 34.3333 28.0001 34.3333C26.9067 34.3333 26.0001 33.4266 26.0001 32.3333V18.9999ZM29.8934 42.2266C29.7601 42.3333 29.6267 42.4399 29.4934 42.5466C29.3334 42.6533 29.1734 42.7333 29.0134 42.7866C28.8534 42.8666 28.6934 42.9199 28.5067 42.9466C28.3467 42.9733 28.1601 42.9999 28.0001 42.9999C27.8401 42.9999 27.6534 42.9733 27.4667 42.9466C27.3067 42.9199 27.1467 42.8666 26.9867 42.7866C26.8267 42.7333 26.6667 42.6533 26.5067 42.5466C26.3734 42.4399 26.2401 42.3333 26.1067 42.2266C25.6267 41.7199 25.3334 41.0266 25.3334 40.3333C25.3334 39.6399 25.6267 38.9466 26.1067 38.4399C26.2401 38.3333 26.3734 38.2266 26.5067 38.1199C26.6667 38.0133 26.8267 37.9333 26.9867 37.8799C27.1467 37.7999 27.3067 37.7466 27.4667 37.7199C27.8134 37.6399 28.1867 37.6399 28.5067 37.7199C28.6934 37.7466 28.8534 37.7999 29.0134 37.8799C29.1734 37.9333 29.3334 38.0133 29.4934 38.1199C29.6267 38.2266 29.7601 38.3333 29.8934 38.4399C30.3734 38.9466 30.6667 39.6399 30.6667 40.3333C30.6667 41.0266 30.3734 41.7199 29.8934 42.2266Z" fill="white"/>
</svg>
