<svg width="81" height="81" viewBox="0 0 81 81" fill="none" xmlns="http://www.w3.org/2000/svg">
<path d="M58.5181 29.8775C58.5181 32.455 56.4301 34.5443 53.8526 34.5443C51.2763 34.5443 49.187 32.455 49.187 29.8775C49.187 27.2999 51.2763 25.2119 53.8526 25.2119C56.4301 25.2119 58.5181 27.2999 58.5181 29.8775Z" fill="white"/>
<path d="M31.6927 29.8775C31.6927 32.455 29.6034 34.5443 27.0271 34.5443C24.4509 34.5443 22.3616 32.455 22.3616 29.8775C22.3616 27.2999 24.4509 25.2119 27.0271 25.2119C29.6034 25.2119 31.6927 27.2999 31.6927 29.8775Z" fill="white"/>
<path d="M24.6301 64.7554C23.5689 64.7554 22.7075 63.8954 22.7075 62.8329C22.7075 54.5336 29.3829 47.7812 37.5887 47.7812H44.0692C52.275 47.7812 58.9503 54.4963 58.9503 62.7495C58.9503 63.812 58.0902 64.6733 57.0277 64.6733C55.9664 64.6733 55.1064 63.812 55.1064 62.7495C55.1064 56.6176 50.1551 51.6277 44.0693 51.6277H37.5888C31.503 51.6277 26.553 56.6534 26.553 62.8327C26.5527 63.8954 25.6913 64.7554 24.6301 64.7554Z" fill="white"/>
<path d="M40.5018 81C18.1751 81 0.0114746 62.8313 0.0114746 40.4994C0.0114746 18.1687 18.1751 0 40.5018 0C62.8273 0 80.9909 18.1687 80.9909 40.4994C80.9909 62.8311 62.8273 81 40.5018 81ZM40.5018 3.84659C20.2951 3.84659 3.85678 20.2889 3.85678 40.4994C3.85678 60.7113 20.2952 77.1534 40.5018 77.1534C60.7073 77.1534 77.1456 60.7111 77.1456 40.4994C77.1456 20.2887 60.7073 3.84659 40.5018 3.84659Z" fill="white"/>
</svg>
