<?xml version="1.0" standalone="no"?>
<!DOCTYPE svg PUBLIC "-//W3C//DTD SVG 20010904//EN"
 "http://www.w3.org/TR/2001/REC-SVG-20010904/DTD/svg10.dtd">
<svg version="1.0" xmlns="http://www.w3.org/2000/svg"
 width="2000.000000pt" height="2000.000000pt" viewBox="0 0 2000.000000 2000.000000"
 preserveAspectRatio="xMidYMid meet">

<g transform="translate(0.000000,2000.000000) scale(0.100000,-0.100000)"
fill="#ddeeFF77" stroke="none">
<path d="M9735 19994 c-907 -34 -1683 -153 -2485 -384 -1433 -412 -2721 -1116
-3858 -2108 -216 -188 -706 -679 -897 -897 -707 -810 -1281 -1723 -1687 -2680
-375 -885 -608 -1746 -727 -2685 -87 -686 -100 -1451 -35 -2155 79 -873 287
-1779 594 -2595 153 -407 404 -952 605 -1315 697 -1260 1642 -2341 2795 -3200
1947 -1449 4382 -2142 6805 -1935 1522 130 2974 598 4290 1383 493 294 1013
674 1473 1075 215 188 706 679 894 894 801 919 1402 1914 1839 3048 315 820
533 1758 613 2650 54 595 54 1233 0 1820 -182 1995 -957 3882 -2233 5440 -373
455 -916 998 -1371 1371 -864 708 -1837 1267 -2875 1652 -930 345 -1898 547
-2895 607 -182 10 -703 19 -845 14z m417 -2541 c131 -48 280 -171 380 -313 25
-36 158 -267 295 -515 137 -247 503 -895 813 -1439 310 -545 581 -1027 602
-1073 81 -172 144 -405 169 -628 15 -126 6 -429 -16 -550 -50 -283 -118 -457
-295 -765 -1276 -2224 -3719 -6441 -3769 -6507 -333 -443 -839 -731 -1396
-793 -125 -14 -3238 -14 -3374 0 -324 34 -550 187 -624 425 -17 55 -21 93 -21
180 2 125 22 217 77 343 30 68 6308 11136 6395 11272 118 187 271 316 442 372
76 25 241 20 322 -9z m4186 -7295 c34 -14 88 -41 119 -59 71 -43 196 -164 255
-249 65 -93 2255 -3940 2295 -4031 56 -128 76 -219 76 -349 1 -100 -3 -125
-26 -189 -84 -237 -304 -380 -632 -412 -74 -7 -848 -9 -2370 -7 -2082 3 -2266
5 -2330 21 -325 78 -504 252 -534 517 -16 148 20 324 100 482 44 87 2231 3858
2286 3940 96 146 246 278 372 328 87 34 120 39 226 36 79 -2 113 -8 163 -28z"/>
</g>
</svg>
