<?xml version="1.0" standalone="no"?>
<!DOCTYPE svg PUBLIC "-//W3C//DTD SVG 20010904//EN"
 "http://www.w3.org/TR/2001/REC-SVG-20010904/DTD/svg10.dtd">
<svg version="1.0" xmlns="http://www.w3.org/2000/svg"
 width="256.000000pt" height="256.000000pt" viewBox="0 0 256.000000 256.000000"
 preserveAspectRatio="xMidYMid meet">

<g transform="translate(0.000000,256.000000) scale(0.100000,-0.100000)"
fill="#ddeeFF77" stroke="none">
<path d="M1140 2549 c-205 -23 -402 -96 -583 -216 -92 -61 -269 -238 -330
-330 -170 -256 -247 -554 -218 -836 14 -130 22 -169 62 -293 119 -366 423
-674 792 -800 328 -112 690 -88 991 66 275 141 496 379 606 653 163 407 117
841 -127 1210 -62 94 -238 269 -333 332 -184 122 -374 191 -595 215 -102 11
-158 11 -265 -1z m-8 -674 c103 -58 196 -117 208 -132 16 -21 20 -40 20 -109
l0 -83 -69 -41 c-108 -63 -101 -65 -101 32 0 58 -5 90 -15 105 -8 12 -66 50
-127 84 -83 46 -122 63 -148 62 -23 -1 -74 -23 -149 -64 -138 -78 -141 -82
-141 -240 0 -154 4 -161 142 -238 61 -35 125 -65 143 -68 28 -5 58 9 202 90
465 264 528 297 558 297 19 -1 101 -41 230 -114 166 -93 203 -118 218 -147 16
-30 17 -59 15 -249 -3 -179 -6 -220 -19 -241 -10 -14 -101 -71 -220 -137 -164
-91 -210 -112 -234 -108 -16 2 -118 53 -225 113 -226 126 -230 131 -230 250
l0 72 81 45 c45 25 83 46 85 46 2 0 4 -32 4 -70 0 -112 9 -125 141 -199 75
-41 126 -63 149 -64 47 -1 261 121 278 158 7 16 12 78 12 154 0 113 -2 131
-20 154 -26 33 -215 137 -260 144 -31 4 -74 -18 -375 -188 -286 -162 -346
-193 -380 -192 -32 0 -78 21 -235 110 -162 91 -198 115 -212 144 -15 29 -18
64 -18 239 0 175 3 210 18 240 14 29 48 51 222 148 166 92 211 112 235 108 17
-2 114 -52 217 -111z"/>
</g>
</svg>
